<svg width="242" height="48" viewBox="0 0 242 48" fill="none" xmlns="http://www.w3.org/2000/svg">
<path d="M72.296 34.168C71.176 34.168 70.168 33.976 69.272 33.592C68.376 33.192 67.672 32.632 67.16 31.912C66.648 31.192 66.392 30.352 66.392 29.392H69.32C69.384 30.112 69.664 30.704 70.16 31.168C70.672 31.632 71.384 31.864 72.296 31.864C73.24 31.864 73.976 31.64 74.504 31.192C75.032 30.728 75.296 30.136 75.296 29.416C75.296 28.856 75.128 28.4 74.792 28.048C74.472 27.696 74.064 27.424 73.568 27.232C73.088 27.04 72.416 26.832 71.552 26.608C70.464 26.32 69.576 26.032 68.888 25.744C68.216 25.44 67.64 24.976 67.16 24.352C66.68 23.728 66.44 22.896 66.44 21.856C66.44 20.896 66.68 20.056 67.16 19.336C67.64 18.616 68.312 18.064 69.176 17.68C70.04 17.296 71.04 17.104 72.176 17.104C73.792 17.104 75.112 17.512 76.136 18.328C77.176 19.128 77.752 20.232 77.864 21.64H74.84C74.792 21.032 74.504 20.512 73.976 20.08C73.448 19.648 72.752 19.432 71.888 19.432C71.104 19.432 70.464 19.632 69.968 20.032C69.472 20.432 69.224 21.008 69.224 21.76C69.224 22.272 69.376 22.696 69.68 23.032C70 23.352 70.4 23.608 70.88 23.8C71.36 23.992 72.016 24.2 72.848 24.424C73.952 24.728 74.848 25.032 75.536 25.336C76.24 25.64 76.832 26.112 77.312 26.752C77.808 27.376 78.056 28.216 78.056 29.272C78.056 30.12 77.824 30.92 77.36 31.672C76.912 32.424 76.248 33.032 75.368 33.496C74.504 33.944 73.48 34.168 72.296 34.168ZM87.0204 34.216C85.7724 34.216 84.6444 33.936 83.6364 33.376C82.6284 32.8 81.8364 32 81.2604 30.976C80.6844 29.936 80.3964 28.736 80.3964 27.376C80.3964 26.032 80.6924 24.84 81.2844 23.8C81.8764 22.76 82.6844 21.96 83.7084 21.4C84.7324 20.84 85.8764 20.56 87.1404 20.56C88.4044 20.56 89.5484 20.84 90.5724 21.4C91.5964 21.96 92.4044 22.76 92.9964 23.8C93.5884 24.84 93.8844 26.032 93.8844 27.376C93.8844 28.72 93.5804 29.912 92.9724 30.952C92.3644 31.992 91.5324 32.8 90.4764 33.376C89.4364 33.936 88.2844 34.216 87.0204 34.216ZM87.0204 31.84C87.7244 31.84 88.3804 31.672 88.9884 31.336C89.6124 31 90.1164 30.496 90.5004 29.824C90.8844 29.152 91.0764 28.336 91.0764 27.376C91.0764 26.416 90.8924 25.608 90.5244 24.952C90.1564 24.28 89.6684 23.776 89.0604 23.44C88.4524 23.104 87.7964 22.936 87.0924 22.936C86.3884 22.936 85.7324 23.104 85.1244 23.44C84.5324 23.776 84.0604 24.28 83.7084 24.952C83.3564 25.608 83.1804 26.416 83.1804 27.376C83.1804 28.8 83.5404 29.904 84.2604 30.688C84.9964 31.456 85.9164 31.84 87.0204 31.84ZM108.565 20.776V34H105.829V32.44C105.397 32.984 104.829 33.416 104.125 33.736C103.437 34.04 102.701 34.192 101.917 34.192C100.877 34.192 99.9411 33.976 99.1091 33.544C98.2931 33.112 97.6451 32.472 97.1651 31.624C96.7011 30.776 96.4691 29.752 96.4691 28.552V20.776H99.1811V28.144C99.1811 29.328 99.4771 30.24 100.069 30.88C100.661 31.504 101.469 31.816 102.493 31.816C103.517 31.816 104.325 31.504 104.917 30.88C105.525 30.24 105.829 29.328 105.829 28.144V20.776H108.565ZM115.367 23.008V30.328C115.367 30.824 115.479 31.184 115.703 31.408C115.943 31.616 116.343 31.72 116.903 31.72H118.583V34H116.423C115.191 34 114.247 33.712 113.591 33.136C112.935 32.56 112.607 31.624 112.607 30.328V23.008H111.047V20.776H112.607V17.488H115.367V20.776H118.583V23.008H115.367ZM127.945 20.56C128.953 20.56 129.849 20.776 130.633 21.208C131.433 21.64 132.057 22.28 132.505 23.128C132.969 23.976 133.201 25 133.201 26.2V34H130.489V26.608C130.489 25.424 130.193 24.52 129.601 23.896C129.009 23.256 128.201 22.936 127.177 22.936C126.153 22.936 125.337 23.256 124.729 23.896C124.137 24.52 123.841 25.424 123.841 26.608V34H121.105V16.24H123.841V22.312C124.305 21.752 124.889 21.32 125.593 21.016C126.313 20.712 127.097 20.56 127.945 20.56ZM148.811 27.064C148.811 27.56 148.779 28.008 148.715 28.408H138.611C138.691 29.464 139.083 30.312 139.787 30.952C140.491 31.592 141.355 31.912 142.379 31.912C143.851 31.912 144.891 31.296 145.499 30.064H148.451C148.051 31.28 147.323 32.28 146.267 33.064C145.227 33.832 143.931 34.216 142.379 34.216C141.115 34.216 139.979 33.936 138.971 33.376C137.979 32.8 137.195 32 136.619 30.976C136.059 29.936 135.779 28.736 135.779 27.376C135.779 26.016 136.051 24.824 136.595 23.8C137.155 22.76 137.931 21.96 138.923 21.4C139.931 20.84 141.083 20.56 142.379 20.56C143.627 20.56 144.739 20.832 145.715 21.376C146.691 21.92 147.451 22.688 147.995 23.68C148.539 24.656 148.811 25.784 148.811 27.064ZM145.955 26.2C145.939 25.192 145.579 24.384 144.875 23.776C144.171 23.168 143.299 22.864 142.259 22.864C141.315 22.864 140.507 23.168 139.835 23.776C139.163 24.368 138.763 25.176 138.635 26.2H145.955ZM154.239 22.696C154.639 22.024 155.167 21.504 155.823 21.136C156.495 20.752 157.287 20.56 158.199 20.56V23.392H157.503C156.431 23.392 155.615 23.664 155.055 24.208C154.511 24.752 154.239 25.696 154.239 27.04V34H151.503V20.776H154.239V22.696ZM167.386 20.56C168.426 20.56 169.354 20.776 170.17 21.208C171.002 21.64 171.65 22.28 172.114 23.128C172.578 23.976 172.81 25 172.81 26.2V34H170.098V26.608C170.098 25.424 169.802 24.52 169.21 23.896C168.618 23.256 167.81 22.936 166.786 22.936C165.762 22.936 164.946 23.256 164.338 23.896C163.746 24.52 163.45 25.424 163.45 26.608V34H160.714V20.776H163.45V22.288C163.898 21.744 164.466 21.32 165.154 21.016C165.858 20.712 166.602 20.56 167.386 20.56ZM187.982 17.32C189.758 17.32 191.31 17.664 192.638 18.352C193.982 19.024 195.014 20 195.734 21.28C196.47 22.544 196.838 24.024 196.838 25.72C196.838 27.416 196.47 28.888 195.734 30.136C195.014 31.384 193.982 32.344 192.638 33.016C191.31 33.672 189.758 34 187.982 34H182.534V17.32H187.982ZM187.982 31.768C189.934 31.768 191.43 31.24 192.47 30.184C193.51 29.128 194.03 27.64 194.03 25.72C194.03 23.784 193.51 22.272 192.47 21.184C191.43 20.096 189.934 19.552 187.982 19.552H185.27V31.768H187.982ZM202.286 22.696C202.686 22.024 203.214 21.504 203.87 21.136C204.542 20.752 205.334 20.56 206.246 20.56V23.392H205.55C204.478 23.392 203.662 23.664 203.102 24.208C202.558 24.752 202.286 25.696 202.286 27.04V34H199.55V20.776H202.286V22.696ZM210.153 19.024C209.657 19.024 209.241 18.856 208.905 18.52C208.569 18.184 208.401 17.768 208.401 17.272C208.401 16.776 208.569 16.36 208.905 16.024C209.241 15.688 209.657 15.52 210.153 15.52C210.633 15.52 211.041 15.688 211.377 16.024C211.713 16.36 211.881 16.776 211.881 17.272C211.881 17.768 211.713 18.184 211.377 18.52C211.041 18.856 210.633 19.024 210.153 19.024ZM211.497 20.776V34H208.761V20.776H211.497ZM220.201 31.552L223.945 20.776H226.849L221.809 34H218.545L213.529 20.776H216.457L220.201 31.552ZM241.037 27.064C241.037 27.56 241.005 28.008 240.941 28.408H230.837C230.917 29.464 231.309 30.312 232.013 30.952C232.717 31.592 233.581 31.912 234.605 31.912C236.077 31.912 237.117 31.296 237.725 30.064H240.677C240.277 31.28 239.549 32.28 238.493 33.064C237.453 33.832 236.157 34.216 234.605 34.216C233.341 34.216 232.205 33.936 231.197 33.376C230.205 32.8 229.421 32 228.845 30.976C228.285 29.936 228.005 28.736 228.005 27.376C228.005 26.016 228.277 24.824 228.821 23.8C229.381 22.76 230.157 21.96 231.149 21.4C232.157 20.84 233.309 20.56 234.605 20.56C235.853 20.56 236.965 20.832 237.941 21.376C238.917 21.92 239.677 22.688 240.221 23.68C240.765 24.656 241.037 25.784 241.037 27.064ZM238.181 26.2C238.165 25.192 237.805 24.384 237.101 23.776C236.397 23.168 235.525 22.864 234.485 22.864C233.541 22.864 232.733 23.168 232.061 23.776C231.389 24.368 230.989 25.176 230.861 26.2H238.181Z" fill="#027B80"/>
<rect opacity="0.2" width="48" height="48" rx="24" fill="#027B80"/>
</svg>
